<svg id="Layer_1" data-name="Layer 1" xmlns="http://www.w3.org/2000/svg" viewBox="0 0 908.06 699.66"><defs><style>.cls-1{fill:#e6e6e6;}.cls-13,.cls-2,.cls-4{fill:none;stroke-miterlimit:10;}.cls-13,.cls-2{stroke:#d0cde1;}.cls-2,.cls-4{stroke-width:3px;}.cls-3{fill:#1b9b53;}.cls-4{stroke:#333;}.cls-5{fill:#3f3d56;}.cls-6{fill:#fff;}.cls-7{fill:#d81f27;}.cls-8{fill:#fda57d;}.cls-9{fill:#edeef9;}.cls-10{opacity:0.1;isolation:isolate;}.cls-11{fill:#da920a;}.cls-12{fill:#72351c;}.cls-13{stroke-width:2px;}.cls-14{fill:#2f2e41;}</style></defs><title>step-my-location</title><g id="Group_19" data-name="Group 19"><g id="Group_17" data-name="Group 17"><path id="Path_125" data-name="Path 125" class="cls-1" d="M787.51,570.67c-2.19-17.17,4.67-34.83.59-51.64-3.14-13-12.43-23.82-15.48-36.82-4.49-19.27,5.78-39.07,18.88-53.86,9-10.2,20.32-19.46,33.79-21.31,8.32-1.18,16.88.65,24.56,4a62.31,62.31,0,0,1,33.5,36.8c1.78,5.27,2.8,10.78,5,15.89,3.76,8.8,10.66,15.9,15,24.46a46.42,46.42,0,0,1,1.56,37.53c-5,12.39-15.39,22.76-16.93,36-1.12,9.56,2.47,20-2.19,28.45-3.52,6.36-10.76,9.57-17.61,12-15.93,5.54-38.22,14.54-54.2,6C799.92,600.69,789.54,586.51,787.51,570.67Z"/><path id="Path_126" data-name="Path 126" class="cls-2" d="M832.25,577.87s17.48-7,19.68-11,5.29-27.33,5.29-27.33"/><line id="Line_2" data-name="Line 2" class="cls-2" x1="832.03" y1="696.9" x2="832.56" y2="526.5"/><path id="Path_173" data-name="Path 173" class="cls-3" d="M700.2,514.52c-2.54-19.91,5.42-40.41.69-59.9-3.64-15.06-14.42-27.63-18-42.71-5.2-22.36,6.7-45.32,21.9-62.48,10.45-11.83,23.56-22.57,39.2-24.72,9.65-1.37,19.58.75,28.49,4.68a72.28,72.28,0,0,1,38.86,42.69c2.06,6.11,3.25,12.5,5.78,18.43,4.36,10.21,12.36,18.45,17.34,28.38a53.84,53.84,0,0,1,1.81,43.54c-5.76,14.38-17.85,26.41-19.64,41.79-1.3,11.09,2.86,23.23-2.54,33-4.08,7.37-12.48,11.1-20.43,13.88-18.48,6.43-44.33,16.86-62.87,6.93C714.59,549.34,702.55,532.9,700.2,514.52Z"/><line id="Line_3" data-name="Line 3" class="cls-4" x1="751.84" y1="696.9" x2="751.84" y2="460.02"/><path id="Path_174" data-name="Path 174" class="cls-4" d="M752.1,528.67s27.23-11,30.66-17.17S791,468.93,791,468.93"/></g><g id="Group_18" data-name="Group 18"><path class="cls-5" d="M625.49,176.66h-3.76V73.74a59.57,59.57,0,0,0-59.57-59.57h-218a59.57,59.57,0,0,0-59.57,59.57h0V638.37a59.57,59.57,0,0,0,59.57,59.57h218a59.57,59.57,0,0,0,59.57-59.57h0V249.92h3.76Z"/><rect class="cls-6" x="325.44" y="90.99" width="248.29" height="266.7"/><path class="cls-6" d="M563.16,31.08H534.7A21.13,21.13,0,0,1,515.13,60.2H390.21a21.13,21.13,0,0,1-19.57-29.12H344.06a44.48,44.48,0,0,0-44.48,44.48h0v563.8a44.48,44.48,0,0,0,44.48,44.48h219.1a44.48,44.48,0,0,0,44.48-44.48h0V75.57a44.48,44.48,0,0,0-44.48-44.48Zm-4.78,261.55a11.56,11.56,0,0,1-11.52,11.52h-55.7a11.56,11.56,0,0,1-11.52-11.52v-2.88a11.56,11.56,0,0,1,11.52-11.52h55.69a11.56,11.56,0,0,1,11.52,11.52Zm6.24-50.89a11.56,11.56,0,0,1-11.52,11.52H353.38a11.56,11.56,0,0,1-11.52-11.52v-2.88a11.56,11.56,0,0,1,11.52-11.52H553.1a11.56,11.56,0,0,1,11.52,11.52Zm0-50.89a11.56,11.56,0,0,1-11.52,11.52H353.38a11.56,11.56,0,0,1-11.52-11.52V188a11.56,11.56,0,0,1,11.52-11.52H553.1A11.56,11.56,0,0,1,564.62,188Zm0-50.89a11.56,11.56,0,0,1-11.52,11.52H353.38A11.56,11.56,0,0,1,341.85,140v-2.88a11.56,11.56,0,0,1,11.52-11.52H553.1a11.56,11.56,0,0,1,11.52,11.52Z"/><path id="Path_123" data-name="Path 123" class="cls-1" d="M607.64,642.78c0,18.56-19.19,41.07-39.67,41.07H343.53c-23.61,0-44-21.86-43.76-39.47l-.19-80.83H607.44Z"/><g id="Group_11" data-name="Group 11"><rect id="Rectangle_52" data-name="Rectangle 52" class="cls-1" x="315.96" y="132.68" width="58.59" height="58.59" rx="9.05" ry="9.05"/><rect id="Rectangle_53" data-name="Rectangle 53" class="cls-1" x="388.28" y="132.68" width="58.59" height="58.59" rx="9.05" ry="9.05"/><rect id="Rectangle_54" data-name="Rectangle 54" class="cls-1" x="460.6" y="132.68" width="58.59" height="58.59" rx="9.05" ry="9.05"/><rect id="Rectangle_55" data-name="Rectangle 55" class="cls-1" x="532.93" y="132.68" width="58.59" height="58.59" rx="9.05" ry="9.05"/></g><rect id="Rectangle_56" data-name="Rectangle 56" class="cls-7" x="315.96" y="230.46" width="58.59" height="58.59" rx="9.06" ry="9.06"/><rect id="Rectangle_57" data-name="Rectangle 57" class="cls-1" x="388.28" y="230.46" width="58.59" height="58.59" rx="9.06" ry="9.06"/><rect id="Rectangle_58" data-name="Rectangle 58" class="cls-1" x="460.6" y="230.46" width="58.59" height="58.59" rx="9.06" ry="9.06"/><rect id="Rectangle_59" data-name="Rectangle 59" class="cls-1" x="532.93" y="230.46" width="58.59" height="58.59" rx="9.06" ry="9.06"/><g id="Group_12" data-name="Group 12"><rect id="Rectangle_60" data-name="Rectangle 60" class="cls-1" x="315.96" y="328.39" width="58.59" height="58.59" rx="9.05" ry="9.05"/><rect id="Rectangle_61" data-name="Rectangle 61" class="cls-1" x="388.28" y="328.39" width="58.59" height="58.59" rx="9.05" ry="9.05"/><rect id="Rectangle_62" data-name="Rectangle 62" class="cls-1" x="460.6" y="328.39" width="58.59" height="58.59" rx="9.05" ry="9.05"/><rect id="Rectangle_63" data-name="Rectangle 63" class="cls-1" x="532.93" y="328.39" width="58.59" height="58.59" rx="9.05" ry="9.05"/></g><g id="Group_13" data-name="Group 13"><rect id="Rectangle_64" data-name="Rectangle 64" class="cls-1" x="315.96" y="426.25" width="58.59" height="58.59" rx="9.05" ry="9.05"/><rect id="Rectangle_65" data-name="Rectangle 65" class="cls-1" x="388.28" y="426.25" width="58.59" height="58.59" rx="9.05" ry="9.05"/><rect id="Rectangle_66" data-name="Rectangle 66" class="cls-1" x="460.6" y="426.25" width="58.59" height="58.59" rx="9.05" ry="9.05"/><rect id="Rectangle_67" data-name="Rectangle 67" class="cls-1" x="532.93" y="426.25" width="58.59" height="58.59" rx="9.05" ry="9.05"/></g><g id="Group_15" data-name="Group 15"><rect id="Rectangle_72" data-name="Rectangle 72" class="cls-7" x="315.6" y="589.26" width="58.69" height="58.69" rx="8.73" ry="8.73"/><rect id="Rectangle_73" data-name="Rectangle 73" class="cls-7" x="388.04" y="589.26" width="58.69" height="58.69" rx="8.73" ry="8.73"/><rect id="Rectangle_74" data-name="Rectangle 74" class="cls-7" x="460.49" y="589.26" width="58.69" height="58.69" rx="8.73" ry="8.73"/><rect id="Rectangle_75" data-name="Rectangle 75" class="cls-7" x="532.93" y="589.26" width="58.69" height="58.69" rx="8.73" ry="8.73"/></g></g><g id="Group_16" data-name="Group 16"><path id="Path_159" data-name="Path 159" class="cls-8" d="M307.16,250.65v15L289.23,292l17.93,11.67s8-30.7,12.27-34.31c0,0,6.75-4.81,10.42-11.44s1.84-29.5-16-9v2.41Z"/><path id="Path_160" data-name="Path 160" class="cls-8" d="M167.49,277.79l7.1-14.2a2.63,2.63,0,0,1,2.22-1.46l27-1.38a2.63,2.63,0,0,1,2.59,3.57l-7,18a2.63,2.63,0,0,1-2.69,1.67l-27.1-2.41a2.63,2.63,0,0,1-2.13-3.78Z"/><path id="Path_161" data-name="Path 161" class="cls-9" d="M169.49,271.7l-4.58,13.43,47-1.69L193.84,272.6Z"/><path id="Path_163" data-name="Path 163" class="cls-5" d="M150.69,418.44A44.73,44.73,0,0,1,147.51,446c-6.62,13.85-6.62,28.32,1.81,45.15l2.41,87.3s3,41,0,49.37,1.18,48.78,1.18,48.78h33.72V649.5l11.44-80.07v-41l20.51,42.75L195.14,670l30.7,12.65,38.53-110.78s-6.68-87.3-30.76-117.4l-4.53-32.82Z"/><path id="Path_164" data-name="Path 164" class="cls-5" d="M152.33,696.92V674.65h34.31s2.41,9,18.07,10.84-7.23,12.65-7.23,12.65Z"/><path id="Path_165" data-name="Path 165" class="cls-5" d="M190.37,687l6-21.48,29.71,9.44S229.3,684,243.9,690c9.94,4-.89,8.69-.89,8.69l-3.91,1Z"/><path id="Path_166" data-name="Path 166" class="cls-10" d="M229.08,423.42l-78.4-3.17a43.86,43.86,0,0,1,.6,14.22c3.58,8.44,11.28,6.13,11.28,6.13l68.6-2.11Z"/><path id="Path_167" data-name="Path 167" class="cls-11" d="M166.48,280.12l-3.13,2.12a58.82,58.82,0,0,0-24.87,59.31h0s17.46,34.18,12,68.36,12,28.9,12,28.9l68.94-2.12L236.62,333s41.54,5.91,60.21-8.54l15-23L289,285.71l-7.81,11.17s-24.52-5.18-38-10.64A57.53,57.53,0,0,0,223.46,282Z"/><path id="Path_168" data-name="Path 168" class="cls-10" d="M167.08,446.9s-4.22,21.07,19.87,56"/><path id="Path_169" data-name="Path 169" class="cls-10" d="M236.89,333.11s28.9-9.63,41.54-9.63S289,328.93,289,328.93,268.83,337.92,236.89,333.11Z"/><path id="Path_170" data-name="Path 170" class="cls-10" d="M204.15,262l-11.5,1.38c-.36,0-.69.5-.89,1.21,2.53,4.56,5.69,7.27,9.13,7.27a7.1,7.1,0,0,0,3.49-1l.88-5.32C205.55,263.78,205,261.88,204.15,262Z"/><circle id="Ellipse_3" data-name="Ellipse 3" class="cls-8" cx="196.12" cy="235.52" r="35.12"/><path id="Path_171" data-name="Path 171" class="cls-10" d="M226,215.63h0l-1.8,1.62a6.07,6.07,0,0,0,1.8,10.09h0S210.24,243.07,208,246s.36,10.61.36,10.61,7,12.8-29.63,9.87c0,0-24.14-5.12-21.58-37.67.25-3.26-5.12-11.72,11-16.09h0a22.15,22.15,0,0,1,17-19.24,61.39,61.39,0,0,1,19-1.67A23.9,23.9,0,0,1,226,215.63Z"/><path id="Path_172" data-name="Path 172" class="cls-12" d="M226.76,213.72h0s3.73,1.15,3.91,13.39l-5.3-.36s-12.27,32.81-11,28.53c4.76-15.73-4.76-12.8-7-9.87s.36,10.61.36,10.61,7,12.8-29.63,9.87c0,0-24.14-5.12-21.58-37.67.25-3.26-5.12-11.72,11-16.09h0a22.15,22.15,0,0,1,16.93-19.25,61.39,61.39,0,0,1,19-1.67C215.92,192.25,226.76,201.34,226.76,213.72Z"/></g><path id="Path_142" data-name="Path 142" class="cls-13" d="M37.24,696.91s-15.76-53.5,3-92.88a84.51,84.51,0,0,0,6.83-53,142.13,142.13,0,0,0-7.51-24.88"/><path id="Path_143" data-name="Path 143" class="cls-1" d="M51.18,501.23c0,6.56-11.87,25.57-11.87,25.57s-11.87-19-11.87-25.57a11.87,11.87,0,0,1,23.75,0Z"/><path id="Path_144" data-name="Path 144" class="cls-1" d="M71.79,537.55c-3.56,5.5-23.86,15-23.86,15s.37-22.41,3.93-27.92a11.87,11.87,0,0,1,19.93,12.91Z"/><path id="Path_145" data-name="Path 145" class="cls-1" d="M69.94,599.62c-5.85,3-28.18.91-28.18.91s11.63-19.16,17.49-22.12a11.87,11.87,0,0,1,10.69,21.2Z"/><path id="Path_146" data-name="Path 146" class="cls-1" d="M58.71,646.44c-5.27,3.9-27.62,5.66-27.62,5.66s8.23-20.85,13.5-24.75a11.87,11.87,0,1,1,14.12,19.09Z"/><path id="Path_147" data-name="Path 147" class="cls-1" d="M22,553.84c4.7,4.57,26.62,9.3,26.62,9.3s-5.37-21.77-10.07-26.33a11.87,11.87,0,0,0-16.55,17Z"/><path id="Path_148" data-name="Path 148" class="cls-1" d="M9.57,608.76c5.85,3,28.18.91,28.18.91s-11.63-19.16-17.49-22.12a11.87,11.87,0,1,0-10.69,21.2Z"/><path id="Path_149" data-name="Path 149" class="cls-1" d="M4.81,663.79c5.27,3.9,27.62,5.66,27.62,5.66S24.2,648.6,18.93,644.7A11.87,11.87,0,0,0,4.81,663.79Z"/><rect id="Rectangle_22" data-name="Rectangle 22" class="cls-14" x="0.06" y="697.34" width="907.58" height="1.63"/></g></svg>