<svg id="aca3dd23-1327-4457-bb54-cb32560b3b43" xmlns="http://www.w3.org/2000/svg" viewBox="0 0 725.83 764.55"><defs><style>.cls-1{fill:#3f3d56;}.cls-2{opacity:0.2;isolation:isolate;}.cls-3{fill:#1b9b53;}.cls-4{fill:#d81f27;}.cls-5{fill:#2f2e41;}.cls-6{fill:#fbbebe;}.cls-7{fill:#da920a;}</style></defs><title>Artboard 1</title><path class="cls-1" d="M519,169.22h-3.91V62a62,62,0,0,0-62-62H226a62,62,0,0,0-62,62h0v588a62,62,0,0,0,62,62H453.08a62,62,0,0,0,62-62h0V245.52H519Z"/><rect class="cls-1" x="0.24" y="682.87" width="718" height="2"/><path class="cls-2" d="M501.92,62.47V649.64A46.29,46.29,0,0,1,455.67,696H227.41a46.3,46.3,0,0,1-46.33-46.26V62.47a46.3,46.3,0,0,1,46.26-46.33h27.75a22,22,0,0,0,20.38,30.32h130.1a22,22,0,0,0,20.38-30.32h29.64a46.29,46.29,0,0,1,46.33,46.25v.08Z"/><path class="cls-1" d="M71.56,684.77l-1.07-.4c-.24-.09-23.71-9.08-34.7-29.47s-5.61-44.95-5.56-45.19l.25-1.12,1.07.4c.24.09,23.71,9.08,34.7,29.47s5.61,44.95,5.56,45.19Zm-34-30.83C46.84,671.18,65.39,680,70.09,682c.89-5,3.7-25.41-5.59-42.63S36.66,613.33,32,611.31C31.06,616.35,28.26,636.72,37.55,653.94Z"/><path class="cls-3" d="M44.19,647.74c19.76,11.89,27.37,35.5,27.37,35.5s-24.43,4.34-44.19-7.55S0,640.19,0,640.19,24.43,635.85,44.19,647.74Z"/><path class="cls-1" d="M238.65,16.14V696H227.41a45.9,45.9,0,0,1-8.76-.83V17a45.89,45.89,0,0,1,8.76-.83Z"/><rect class="cls-1" x="326.65" y="46.46" width="20" height="649.51"/><path class="cls-1" d="M471.65,19V693.11A46.19,46.19,0,0,1,455.59,696h-3.94V16.14h3.94A46.19,46.19,0,0,1,471.65,19Z"/><rect class="cls-1" x="181.08" y="129.34" width="320.84" height="20"/><rect class="cls-1" x="181.08" y="356.34" width="320.84" height="20"/><rect class="cls-1" x="330.65" y="468.34" width="161" height="20"/><rect class="cls-1" x="326.65" y="214.34" width="175.27" height="20"/><polygon class="cls-1" points="341.1 148 338.78 149.34 326.65 156.34 238.65 207.15 218.65 218.7 181.08 240.39 181.08 217.29 218.65 195.6 238.65 184.06 298.78 149.34 326.65 133.25 331.1 130.68 341.1 148"/><rect class="cls-1" x="181.08" y="575.34" width="320.84" height="20"/><path class="cls-4" d="M571.65,215.34c0,63.51-115,205-115,205s-115-141.49-115-205a115,115,0,1,1,230,0Z"/><circle class="cls-2" cx="456.65" cy="210.34" r="68"/><circle class="cls-4" cx="454.41" cy="211.85" r="25.33"/><path class="cls-4" d="M494,285.34a38,38,0,1,0-74.63,0Z"/><path class="cls-5" d="M576.49,122.79s-18.07-6.45-29.68,19.36-29.68,54.2-29.68,54.2l10.32,2.58s2.58-18.07,9-20.65l-2.58,23.23s77.43,27.1,112.28-2.58l-1.29-9s5.16,1.29,5.16,9l3.87-3.87S650,187.31,638.43,177c-7.62-6.78-10.24-19.67-11.14-27.73A33.56,33.56,0,0,0,619.57,131C611.85,122,597.78,112.53,576.49,122.79Z"/><path class="cls-6" d="M686.15,268.84s34,29,39,46-19,19-19,19l-52,5s-1,24-10,27-1.83-39.69-1.83-39.69l50.83-14.31-23-24Z"/><path class="cls-6" d="M527.15,298.84l-4,53-22,90s-20,41-3,42,16-39,16-39l32-85,3-58Z"/><polygon class="cls-6" points="545.15 682.84 545.15 721.84 569.15 715.84 562.15 679.84 545.15 682.84"/><polygon class="cls-6" points="673.15 682.84 673.15 721.84 697.15 715.84 690.15 679.84 673.15 682.84"/><circle class="cls-6" cx="583.15" cy="172.84" r="33"/><path class="cls-6" d="M568.15,188.84s12,43-7,54,48,19,66-14c0,0-32-11-23-40Z"/><path class="cls-7" d="M545.15,247.84l-6-2s-12,5-12,14-2,45-2,45l27,3Z"/><path class="cls-5" d="M549.15,354.79s-33,42.05-33,93.05,8,236,8,236,30,14,48-3l16-210,63,217s30,6,44-4l-27-140s-1-166-31-178S549.15,354.79,549.15,354.79Z"/><path class="cls-5" d="M571.15,709.84s-26-14-28,5-3,31-3,31-3,23,25,18,18-19,18-19-10-16-10-20S571.15,709.84,571.15,709.84Z"/><path class="cls-5" d="M670.59,709.39s23.66-17.67,28.43.83,7.52,30.22,7.52,30.22,6.35,22.31-22.09,21.48-20.6-16.15-20.6-16.15,7.54-17.3,7-21.25S670.59,709.39,670.59,709.39Z"/><path class="cls-7" d="M641.15,233.84s13-7,26,8l26,30-20,22-38-23Z"/><path class="cls-5" d="M547.49,173.05c11.68-8.45,21.14-18.19,27.39-29.78,0,0,21.44,23.82,34.54,25s1.19-28.59,1.19-28.59l-23.82-6-22.63,2.38L546.3,148Z"/><path class="cls-7" d="M622.15,226.84s-14,22.13-56,11.56L542.32,245l-3.17.87s3,60,11,71,6,17,4,18-7-1-4,4,7,2,3,5-6,14-6,14l94,12s-3-39,5-59,10-28,10-28l-6-50Z"/><circle class="cls-4" cx="466.65" cy="472.34" r="31"/></svg>