<svg id="a1b88308-023c-4d54-b03f-87bf5b0d0bd6" xmlns="http://www.w3.org/2000/svg" viewBox="0 0 964.75 722.16"><defs><style>.cls-1{fill:#f2f2f2;}.cls-2{fill:#d81f27;}.cls-3{fill:#3f3d56;}.cls-4{fill:#1b9b53;}.cls-5{fill:#d0cde1;}.cls-6{fill:#fff;}.cls-7{fill:#da920a;}.cls-8{fill:#323145;}.cls-9{fill:#ffb9b9;}.cls-10{fill:#2f2e41;}.cls-11{opacity:0.1;isolation:isolate;}</style></defs><title>step-payment</title><circle class="cls-1" cx="123" cy="415.88" r="123"/><circle class="cls-2" cx="143" cy="397.88" r="123"/><rect class="cls-3" x="171.86" y="652.56" width="158.41" height="1.87"/><path class="cls-3" d="M251,654.88c-84.36,0-153-68.64-153-153s68.64-153,153-153,153,68.64,153,153S335.36,654.88,251,654.88Zm0-304c-83.26,0-151,67.74-151,151s67.74,151,151,151,151-67.74,151-151-67.74-151-151-151Z"/><circle class="cls-4" cx="410.01" cy="236" r="7"/><path class="cls-3" d="M687.9,169.22H684V62A62,62,0,0,0,622,0H394.86a62,62,0,0,0-62,62h0v588a62,62,0,0,0,62,62H622a62,62,0,0,0,62-62h0V245.52h3.91Z"/><rect class="cls-3" x="292.27" y="710.19" width="672.48" height="2.4"/><path class="cls-5" d="M623,17.61H593.35A22,22,0,0,1,573,47.93H442.87a22,22,0,0,1-20.38-30.32H394.81a46.33,46.33,0,0,0-46.33,46.33V651.11a46.33,46.33,0,0,0,46.33,46.33H623a46.33,46.33,0,0,0,46.33-46.33h0V63.94A46.33,46.33,0,0,0,623,17.61ZM618,290a12,12,0,0,1-12,12H548a12,12,0,0,1-12-12v-3a12,12,0,0,1,12-12h58a12,12,0,0,1,12,12Zm6.5-53a12,12,0,0,1-12,12h-208a12,12,0,0,1-12-12v-3a12,12,0,0,1,12-12h208a12,12,0,0,1,12,12Zm0-53a12,12,0,0,1-12,12h-208a12,12,0,0,1-12-12v-3a12,12,0,0,1,12-12h208a12,12,0,0,1,12,12Zm0-53a12,12,0,0,1-12,12h-208a12,12,0,0,1-12-12v-3a12,12,0,0,1,12-12h208a12,12,0,0,1,12,12Z"/><path class="cls-4" d="M669.32,560.68v90.58A46.25,46.25,0,0,1,623,697.44H394.81a46.25,46.25,0,0,1-46.33-46.17V560.68C450,469.5,564.31,470.56,656,548.42Q662.93,554.28,669.32,560.68Z"/><circle class="cls-6" cx="510.36" cy="619.31" r="35.58"/><circle class="cls-5" cx="410.01" cy="236" r="7"/><circle class="cls-5" cx="433.01" cy="236" r="7"/><circle class="cls-5" cx="456.01" cy="236" r="7"/><circle class="cls-5" cx="554.01" cy="289" r="7"/><circle class="cls-5" cx="577.01" cy="289" r="7"/><circle class="cls-5" cx="600.01" cy="289" r="7"/><rect class="cls-7" x="359.35" y="392.32" width="298.32" height="168.37" rx="23.5" ry="23.5"/><path class="cls-8" d="M396.56,413.37c-7.23-4.35-16-4-19.27-3.68,1.26,3.08,5.05,10.94,12.28,15.29s16,4,19.27,3.69C407.58,425.58,403.79,417.72,396.56,413.37Z"/><path class="cls-8" d="M430.54,499.66h-45.2a10.17,10.17,0,0,0,0,20.34h45.2a10.17,10.17,0,0,0,0-20.34Z"/><path class="cls-8" d="M635.22,392.32H381.8a22.45,22.45,0,0,0-22.45,22.45h0V538.24a22.45,22.45,0,0,0,22.45,22.45H635.22a22.45,22.45,0,0,0,22.45-22.45h0V414.76a22.45,22.45,0,0,0-22.45-22.45ZM375.53,407.63c.5-.09,12.37-2.11,22.19,3.8s13.6,17.34,13.76,17.83l.4,1.23-1.28.23a33.84,33.84,0,0,1-5.5.4c-4.46,0-10.93-.74-16.69-4.21-9.83-5.91-13.6-17.34-13.76-17.82l-.4-1.23Zm55,114.64h-45.2a12.43,12.43,0,0,1,0-24.86h45.2a12.43,12.43,0,1,1,0,24.86ZM636.2,520a13.6,13.6,0,0,1-13.56,13.56h-33.9A13.6,13.6,0,0,1,575.18,520V499.66a13.6,13.6,0,0,1,13.56-13.56h33.9a13.6,13.6,0,0,1,13.56,13.56Z"/><path class="cls-8" d="M599.47,516H584.78a4,4,0,0,0,0,7.91h14.69a4,4,0,0,0,0-7.91Zm0,5.65H584.78a1.69,1.69,0,0,1,0-3.39h14.69a1.69,1.69,0,0,1,0,3.39Z"/><path class="cls-8" d="M626.59,516H611.9a4,4,0,0,0,0,7.91h14.69a4,4,0,0,0,0-7.91Zm0,5.65H611.9a1.69,1.69,0,0,1,0-3.39h14.69a1.69,1.69,0,0,1,0,3.39Z"/><path class="cls-8" d="M599.47,505.88H584.78a4,4,0,0,0,0,7.91h14.69a4,4,0,0,0,0-7.91Zm0,5.65H584.78a1.69,1.69,0,0,1,0-3.39h14.69a1.69,1.69,0,0,1,0,3.39Z"/><path class="cls-8" d="M626.59,505.88H611.9a4,4,0,0,0,0,7.91h14.69a4,4,0,0,0,0-7.91Zm0,5.65H611.9a1.69,1.69,0,0,1,0-3.39h14.69a1.69,1.69,0,0,1,0,3.39Z"/><path class="cls-8" d="M599.47,495.71H584.78a4,4,0,1,0,0,7.91h14.7a4,4,0,0,0,0-7.91Zm0,5.65H584.78a1.69,1.69,0,0,1,0-3.39h14.69a1.69,1.69,0,0,1,0,3.39Z"/><path class="cls-8" d="M626.59,495.71H611.9a4,4,0,0,0,0,7.91h14.7a4,4,0,0,0,0-7.91Zm0,5.65H611.9a1.69,1.69,0,0,1,0-3.39h14.69a1.69,1.69,0,0,1,0,3.39Z"/><rect class="cls-1" x="809.01" y="32" width="28" height="28"/><rect class="cls-2" x="803.01" y="39" width="28" height="28"/><path class="cls-3" d="M776,49h46V95H776Zm44,2H778V93h42Z"/><rect class="cls-1" x="262.01" y="263" width="28" height="28"/><rect class="cls-2" x="268.01" y="256" width="28" height="28"/><path class="cls-3" d="M323,274H277V228h46Zm-44-2h42V230H279Z"/><path class="cls-9" d="M738,421.85s-17.45,36.35-5.82,37.8,14.54-32.71,14.54-32.71Z"/><polygon class="cls-9" points="804.18 654.46 792.55 675.08 813.63 688.27 818.66 663.93 804.18 654.46"/><path class="cls-10" d="M799.21,677.94s-6.39-10.4-8.7-8.66-11.84,9.28-11.84,9.28l-12.41,11.89s-41.93,4.43-15.29,19.12,41.36,2.51,41.36,2.51,37.31,1.94,36.71-8.47-12.64-26.88-12.64-26.88S801.26,686.9,799.21,677.94Z"/><path class="cls-11" d="M799.21,677.94s-6.39-10.4-8.7-8.66-11.84,9.28-11.84,9.28l-12.41,11.89s-41.93,4.43-15.29,19.12,41.36,2.51,41.36,2.51,37.31,1.94,36.71-8.47-12.64-26.88-12.64-26.88S801.26,686.9,799.21,677.94Z"/><path class="cls-10" d="M855.79,421.48l-10.9,131.94s-.36,78.87-12,94.14-12,22.9-12,22.9l-24-12.36s8-.73,4.36-5.82-14.54,0-4.36-7.27,12.36-7.51,9.81-10.66a17.57,17.57,0,0,1-3.27-6.79L810,546.15,797.64,404.4Z"/><path class="cls-11" d="M855.79,421.48l-10.9,131.94s-.36,78.87-12,94.14-12,22.9-12,22.9l-24-12.36s8-.73,4.36-5.82-14.54,0-4.36-7.27,12.36-7.51,9.81-10.66a17.57,17.57,0,0,1-3.27-6.79L810,546.15,797.64,404.4Z"/><polygon class="cls-9" points="825.99 654.46 836.16 681.36 865.24 670.46 847.07 651.56 825.99 654.46"/><path class="cls-10" d="M840.42,669.8s-10.86-6.79-12.22-4.07S821.41,680,821.41,680l-6.11,17s-37.35,23.77-5.43,25.13,40.06-17,40.06-17,36-15.62,30.56-25.13S856,660.62,856,660.62,846.54,677.27,840.42,669.8Z"/><path class="cls-10" d="M763.47,421.85l-5.82,121.4S786,623.93,810.72,637c0,0,0,16,5.82,18.9a14.6,14.6,0,0,1,7.27,8.72l32-8s-8-8-5.09-11.63-9.45-11.63-9.45-11.63l-32-77.78s-5.09-2.18-6.54-9.45-4.36-7.27,2.91-8.72,7.27-8.72,7.27-8.72l24-110.49Z"/><circle class="cls-9" cx="789.64" cy="202.32" r="29.08"/><path class="cls-9" d="M815.45,204.13s2.18,37.07,5.09,40.71S790,247.75,790,247.75s2.18-31.26,0-34.17S815.45,204.13,815.45,204.13Z"/><path class="cls-7" d="M825.26,233.58s-27.62-2.91-37.8,5.82A74.8,74.8,0,0,1,777,246.84a21.35,21.35,0,0,0-10.36,17.68l-5.4,165.33s82.14-7.27,97.41,0c0,0,.73-16.72,2.18-18.9,1.06-1.59,2.89-65,3.81-99.24a75.41,75.41,0,0,0-19.09-52.63c-4.41-4.88-9.33-9-14.53-11C831.07,248.11,832.53,234.3,825.26,233.58Z"/><path class="cls-7" d="M780.92,248.11h0a21.47,21.47,0,0,0-15.8,17.78l-10.37,73.81-14.54,58.88s-7.27,6.54-4.36,10.18-3.63,18.9-3.63,18.9l18.17,5.82s2.18-15.27,5.82-16c3.19-.64,39-96.16,47.57-119.3l1.86-5S804.18,244.48,780.92,248.11Z"/><path class="cls-11" d="M805.27,292.82l-44,119S803.81,331.35,805.27,292.82Z"/><path class="cls-10" d="M804.83,210.89c-2.46-.15-4.86.68-7.3,1-8.74,1.16-17.83-5.18-19.75-13.78a10.57,10.57,0,0,0-1-3.29c-1.34-2.2-4.41-2.61-6.93-2.11s-4.92,1.69-7.49,1.82c-4,.21-7.78-2.24-9.9-5.6A19,19,0,0,1,750,177.46l1.9,2a9.67,9.67,0,0,0,.86-5.25,6.1,6.1,0,0,1,5.77,1.48c1.68.18.41-3.11,1.66-4.25a2.88,2.88,0,0,1,2-.38c3.57,0,6.46-2.7,9.27-4.89a39.39,39.39,0,0,1,16.64-7.59c4-.79,8.32-.91,12.14.59a25.93,25.93,0,0,1,8.2,5.82c6,5.75,11.28,12.52,13.77,20.44a34.4,34.4,0,0,1,.16,19.95c-1,3.39-4,15-8.45,15.25C808.41,221,811.75,211.3,804.83,210.89Z"/><polygon class="cls-4" points="526.9 610.58 521.93 605.91 505.81 623.1 498.49 616.23 493.82 621.21 503.64 630.4 503.64 630.4 506.15 632.7 526.9 610.58"/></svg>