<?xml version="1.0" encoding="utf-8"?>
<!-- Generator: Adobe Illustrator 23.0.1, SVG Export Plug-In . SVG Version: 6.00 Build 0)  -->
<svg version="1.1" id="Logo" xmlns="http://www.w3.org/2000/svg" xmlns:xlink="http://www.w3.org/1999/xlink" x="0px" y="0px"
	 viewBox="0 0 512 184.6" style="enable-background:new 0 0 512 184.6;" xml:space="preserve">
<style type="text/css">
	.st0{fill:#FFFFFF;}
	.st1{fill:#FFFFFF;stroke:#FFFFFF;stroke-width:2;stroke-miterlimit:10;}
</style>
<g>
	<path class="st0" d="M250.4,103.5c-3.7,0-7.2-0.5-10.3-1.5c-3.2-1-6-2.7-8.4-5c-2.4-2.3-4.3-5.4-5.7-9.1s-2-8.3-2-13.8v-8.6h10v8.7
		c0,6.5,1.4,11.4,4.2,14.4c2.8,3.1,7,4.6,12.5,4.6h41.4v-81h10.6v91.3h-52L250.4,103.5z M249.6,61.6h5.7v-0.5
		c-0.5-0.6-1-1.5-1.7-2.7s-0.9-2.3-0.9-3.4c0-2.7,0.8-4.9,2.4-6.6c1.7-1.8,4.1-2.7,7.4-2.7c3.3,0,5.7,0.8,7.3,2.3
		c1.5,1.5,2.4,3.8,2.6,6.8h-5c0-1.3-0.4-2.4-1.3-3.3c-0.9-0.9-2-1.4-3.4-1.4c-1.5,0-2.7,0.5-3.5,1.5c-0.8,1-1.1,2.4-1.1,4.1
		c0,1.7,0.5,3.1,1.4,4.1c0.9,1,2,1.7,3.3,1.8h10.6v4.6h-23.9V61.6z"/>
	<path class="st0" d="M321.6,123.6c1.8,0,3.3-0.4,4.6-1s2.4-1.7,3.3-3.2c0.9-1.5,1.7-3.6,2.2-6c0.5-2.4,0.8-5.5,0.8-9.2V49.3h10.9
		v54.9c0,9.7-1.5,17.1-4.6,22.2c-3.1,5.1-8.3,7.7-15.6,7.7c-1.8,0-3.3-0.1-4.6-0.4s-2.3-0.5-3.1-0.9c-0.9-0.4-1.7-0.8-2.3-1.1v-10.3
		c2.7,1.4,5.5,2.2,8.4,2.2V123.6z"/>
	<path class="st0" d="M382.5,93.2c0.6,0,1.3,0.1,1.8,0.3s0.8,0.6,0.8,1.5v7.2c0,0.9-0.9,1.4-2.7,1.4H360V12.2h10.9v81h11.5H382.5z"
		/>
	<path class="st0" d="M437.3,103.4c-1.8,0-3.6-0.3-5.5-0.9c-1.9-0.6-3.7-1.4-5.4-2.4c-1.7-1-3.1-2.2-4.3-3.4
		c-1.3-1.3-2.2-2.7-2.8-4.2c-1.9,3.8-4.6,6.6-7.9,8.4c-3.3,1.8-6.9,2.7-10.6,2.7h-18.4c-1.8,0-2.7-0.5-2.7-1.4V95
		c0-0.9,0.3-1.4,0.8-1.5c0.5-0.1,1.1-0.3,1.8-0.3h18.5c2.9,0,5.5-1,7.7-2.9c2.2-1.9,3.2-5.2,3.2-10V49h10.7v26.8
		c0,2.6,0.4,4.9,1.1,7c0.8,2.2,1.9,4,3.3,5.5c1.4,1.5,3.1,2.7,5,3.6c1.9,0.9,3.8,1.3,5.9,1.3h5.5c0.6,0,1.3,0.1,1.8,0.3
		s0.8,0.6,0.8,1.5v7.2c0,0.9-0.9,1.4-2.7,1.4h-5.5L437.3,103.4z M422.7,115.7v14.9h-10.9v-14.9H422.7z"/>
	<path class="st0" d="M443.1,103.7c-1.8,0-2.7-0.5-2.7-1.4v-7.2c0-0.9,0.3-1.4,0.8-1.5c0.5-0.1,1.1-0.3,1.8-0.3h17.4v-0.5
		c-0.6-0.6-1.4-1.7-2.4-3.2c-1-1.5-1.9-3.2-2.8-5.1c-0.9-1.9-1.7-4-2.3-6.1c-0.6-2.2-0.9-4.2-0.9-6.1c0-10.2,2.7-18,8-23.4
		c5.4-5.4,12.6-8,22-8c9.3,0,16.6,2.7,22,8.2s8,13.3,8,23.4s-2.6,17.8-7.8,23.1c-5.2,5.4-12.6,8-22.2,8h-39L443.1,103.7z
		 M481.9,51.8c-5.5,0-10,1.9-13.4,5.7c-3.4,3.8-5.1,8.8-5.1,15.1c0,3.2,0.5,6,1.4,8.6c0.9,2.6,2.2,4.7,3.8,6.6
		c1.7,1.9,3.6,3.3,5.9,4.3s4.9,1.5,7.5,1.5c5.5,0,10-1.8,13.4-5.4c3.4-3.6,5.2-8.8,5.2-15.8c0-7-1.7-12.3-5.1-15.7
		c-3.4-3.4-7.9-5.2-13.4-5.2L481.9,51.8z"/>
</g>
<g>
	<path class="st1" d="M27.6,170.1v2.5H11.5v-23.3h16.1v2.5H14.5v7.7h12.1v2.5H14.5v8.1H27.6z"/>
	<path class="st1" d="M74,172.6c-0.5-2.4-1.2-4.9-2.1-7.7H61.3c-0.9,2.8-1.6,5.3-2.1,7.7h-3c0.9-4,2.2-8.1,3.8-12.3s3.3-7.8,5-11
		h3.4c1.8,3.2,3.4,6.9,5,11.1c1.6,4.2,2.9,8.2,3.8,12.3H74z M66.6,151.9c-1.4,2.6-2.9,6.1-4.5,10.6h9
		C69.5,157.9,68,154.4,66.6,151.9z"/>
	<path class="st1" d="M122.2,151.9h-8.8v20.8h-3v-20.8h-8.8v-2.5h20.6V151.9z"/>
	<path class="st1" d="M195.6,165.4l-8.2-10.8v18h-2.8v-23.3h2.4l8.6,11.5l8.5-11.5h2.5v23.3h-3v-18L195.6,165.4z"/>
	<path class="st1" d="M247.8,173.1c-3.7,0-6.3-0.7-7.8-2.2c-0.8-0.8-1.3-2-1.6-3.5c-0.3-1.5-0.4-3.6-0.4-6.2v-11.9h3v11.9
		c0,2.4,0.1,4.2,0.2,5.3c0.2,1.1,0.5,2,1.1,2.5c1,1,2.8,1.5,5.4,1.5c2.6,0,4.4-0.5,5.4-1.5c0.6-0.6,0.9-1.4,1.1-2.5
		c0.2-1.1,0.2-2.9,0.2-5.3v-11.9h3v11.9c0,2.6-0.1,4.7-0.4,6.2c-0.3,1.5-0.8,2.7-1.6,3.5C254.1,172.4,251.5,173.1,247.8,173.1z"/>
	<path class="st1" d="M289,172.6v-23.3h9.5c3.3,0,5.5,0.5,6.6,1.6c1,1,1.5,2.4,1.5,4.2c0,1.8-0.5,3.2-1.4,4.1
		c-0.6,0.6-1.6,1.1-3,1.4c1.6,0.3,2.8,0.8,3.5,1.5c0.9,0.9,1.4,2.4,1.4,4.3c0,1.9-0.5,3.4-1.5,4.4c-1.2,1.2-3.7,1.8-7.6,1.8H289z
		 M297.5,151.9H292v7.8h5.3c2.8,0,4.6-0.4,5.3-1.1c0.6-0.6,0.9-1.5,0.9-2.9c0-1.2-0.3-2.1-0.9-2.7
		C301.8,152.2,300.1,151.9,297.5,151.9z M297.7,161.9H292v8.2h5.9c2.7,0,4.4-0.4,5.2-1.2c0.6-0.6,0.9-1.5,0.9-2.8
		c0-1.5-0.3-2.5-0.9-3.1C302.3,162.3,300.5,161.9,297.7,161.9z"/>
	<path class="st1" d="M353,172.6c-0.5-2.4-1.2-4.9-2.1-7.7h-10.7c-0.9,2.8-1.6,5.3-2.1,7.7h-3c0.9-4,2.2-8.1,3.8-12.3s3.3-7.8,5-11
		h3.4c1.8,3.2,3.4,6.9,5,11.1c1.6,4.2,2.9,8.2,3.8,12.3H353z M345.6,151.9c-1.4,2.6-2.9,6.1-4.5,10.6h9
		C348.4,157.9,346.9,154.4,345.6,151.9z"/>
	<path class="st1" d="M385.7,172.6v-23.3h9.2c1.4,0,2.7,0.2,4,0.5c1.3,0.3,2.2,0.8,2.8,1.4c1,1,1.5,2.8,1.5,5.3
		c0,2.3-0.5,3.9-1.5,4.9c-1,1-2.8,1.6-5.4,1.8l7.7,9.5h-3.7l-7.2-9.3h-4.3v9.3H385.7z M394,151.9h-5.3v9.1h5.3
		c2.7,0,4.5-0.4,5.3-1.2c0.6-0.6,0.9-1.7,0.9-3.3c0-1.7-0.3-2.8-0.9-3.4C398.4,152.3,396.7,151.9,394,151.9z"/>
	<path class="st1" d="M449.9,172.6c-0.5-2.4-1.2-4.9-2.1-7.7h-10.7c-0.9,2.8-1.6,5.3-2.1,7.7h-3c0.9-4,2.2-8.1,3.8-12.3
		s3.3-7.8,5-11h3.4c1.8,3.2,3.4,6.9,5,11.1c1.6,4.2,2.9,8.2,3.8,12.3H449.9z M442.5,151.9c-1.4,2.6-2.9,6.1-4.5,10.6h9
		C445.4,157.9,443.9,154.4,442.5,151.9z"/>
	<path class="st1" d="M497.2,172.6L485.7,162v10.7h-3v-23.3h3v11l11.9-11h3.7l-12.7,11.7l12.4,11.6H497.2z"/>
</g>
<g>
	<g>
		<path class="st0" d="M58.4,102c-6.1,2.4-14.4,3.6-24.8,3.6c-12.6,0-21.5-2.7-26.7-8c-5.1-5.1-7.7-15.3-7.7-30.5
			c0-14.9,2.6-25,7.7-30.3c5.3-5.4,13.4-8.1,24.3-8.1c10.6,0,18.6,2.7,23.8,8c2.8,2.7,4.6,6.5,5.5,11.5c0.9,5,1.4,11.5,1.4,19.5H11
			c0.2,11.8,2,19.4,5.4,22.7c3.6,3.6,10.1,5.4,19.5,5.4c7.9,0,15.4-1.1,22.6-3.2V102z M16.1,42.9c-2.8,2.8-4.4,8.2-4.8,16.4h39.2
			c-0.3-8.4-1.7-13.9-4.1-16.4c-3.3-3.3-8.3-5-15.1-5C24.4,37.9,19.4,39.6,16.1,42.9z"/>
		<path class="st0" d="M127.2,103.5v-7c-7.2,6.1-16.6,9.1-28.1,9.1c-8.4,0-14.5-1.8-18.2-5.4c-3.6-3.6-5.4-9.2-5.4-16.9
			c0-7.8,1.7-13.4,5-16.8c3.9-3.9,10.4-5.9,19.4-5.9c9.9,0,19,2.5,27.2,7.6v-8.1c0-5.1-0.3-8.8-0.8-11c-0.5-2.2-1.5-4-3-5.5
			c-3.1-3.1-9.9-4.7-20.2-4.7c-8.7,0-16.5,1.1-23.2,3.3v-9.9c5.9-2.4,14.3-3.6,25.2-3.6c13.4,0,22.6,2.5,27.6,7.6
			c2.5,2.5,4.1,5.4,4.9,8.8c0.8,3.4,1.2,8.4,1.2,15.1v43.3H127.2z M102,96c9.1,0,17.5-2.3,25.2-7V75.2c-7.6-3.8-16-5.6-25.2-5.6
			c-6.1,0-10.1,1-12.1,3c-2,1.9-3,5.3-3,10.2c0,4.8,1,8.2,3,10.2C92,95,96,96,102,96z"/>
		<path class="st0" d="M202.7,102.4c-4.2,1.7-9.4,2.6-15.7,2.6c-8,0-13.4-1.7-16.4-5c-1.8-2-3.1-4.7-3.8-7.9c-0.7-3.3-1-8.3-1-15.2
			V40.4H155v-9.6h10.9V12.5h11.8v18.3h21.9v9.6h-21.9v35.9c0,5.5,0.2,9.3,0.6,11.4c0.4,2.1,1.1,3.7,2.2,4.8c1.7,1.7,4.9,2.6,9.4,2.6
			c4.8,0,9.1-0.8,12.9-2.3V102.4z"/>
	</g>
</g>
</svg>
